<?xml version="1.0" standalone="no"?>
<!DOCTYPE svg PUBLIC "-//W3C//DTD SVG 20010904//EN"
 "http://www.w3.org/TR/2001/REC-SVG-20010904/DTD/svg10.dtd">
<svg version="1.0" xmlns="http://www.w3.org/2000/svg"
 width="712.000000pt" height="712.000000pt" viewBox="0 0 712.000000 712.000000"
 preserveAspectRatio="xMidYMid meet">
<metadata>
Created by potrace 1.14, written by Peter Selinger 2001-2017
</metadata>
<g transform="translate(0.000000,712.000000) scale(0.100000,-0.100000)"
fill="#000000" stroke="none">
<path d="M6595 7093 c-49 -13 -97 -26 -105 -28 -8 -1 -44 -11 -80 -20 -36 -9
-69 -18 -75 -19 -5 -1 -15 -5 -21 -9 -6 -3 -26 -9 -45 -12 -19 -3 -142 -34
-274 -70 -132 -36 -250 -67 -262 -69 -13 -3 -27 -7 -33 -11 -6 -4 -22 -8 -36
-11 -14 -3 -51 -12 -82 -20 -32 -8 -65 -17 -74 -20 -23 -5 -52 -13 -80 -20
-30 -7 -40 -10 -58 -17 -8 -3 -44 -12 -80 -21 -36 -9 -141 -36 -235 -61 -93
-25 -219 -59 -280 -75 -60 -16 -146 -38 -190 -50 -234 -63 -313 -84 -450 -119
-82 -22 -253 -67 -380 -101 -126 -34 -237 -63 -245 -65 -31 -7 -126 -33 -140
-39 -8 -3 -26 -8 -40 -10 -34 -7 -48 -10 -175 -46 -60 -16 -123 -33 -139 -36
-16 -2 -32 -7 -36 -9 -3 -2 -17 -6 -31 -9 -13 -3 -76 -19 -139 -36 -63 -17
-164 -44 -225 -60 -60 -16 -186 -50 -280 -75 -93 -25 -199 -52 -235 -61 -36
-9 -72 -18 -80 -21 -19 -7 -30 -11 -55 -16 -21 -5 -221 -58 -315 -83 -57 -16
-78 -21 -107 -28 -10 -2 -53 -14 -95 -26 -43 -11 -85 -23 -95 -25 -10 -2 -45
-12 -78 -21 -33 -9 -67 -18 -75 -19 -8 -2 -100 -27 -205 -55 -104 -28 -197
-53 -205 -55 -23 -6 -193 -50 -323 -85 -156 -41 -164 -44 -187 -82 -17 -29
-20 -51 -20 -174 0 -127 2 -142 20 -162 12 -12 22 -22 24 -22 2 0 28 5 57 11
30 6 65 12 79 15 14 2 36 7 50 11 14 3 32 7 40 8 15 2 70 14 100 20 8 2 15 4
15 5 0 2 21 6 69 14 21 3 42 9 47 12 5 3 23 7 41 9 27 4 178 35 238 50 8 2 30
7 48 11 l33 7 -36 -62 c-71 -120 -159 -345 -170 -430 -2 -17 -7 -35 -10 -40
-25 -41 -26 -386 -1 -486 2 -5 6 -28 10 -50 20 -103 98 -285 168 -387 l39 -58
-28 -1 c-31 0 -166 -6 -338 -13 -60 -3 -179 -8 -264 -12 -177 -7 -171 -7 -192
-19 -32 -20 -39 -53 -39 -194 0 -132 1 -141 23 -167 l23 -27 407 -1 c224 -1
407 -2 407 -4 0 -1 -20 -33 -45 -70 -25 -37 -45 -72 -45 -79 0 -7 -4 -13 -10
-13 -5 0 -10 -9 -10 -20 0 -11 -5 -20 -10 -20 -6 0 -9 -3 -8 -7 1 -5 -6 -26
-16 -48 -103 -237 -120 -548 -46 -832 10 -40 23 -80 28 -90 6 -10 11 -21 11
-25 8 -36 104 -245 120 -258 3 -3 11 -15 18 -27 11 -19 10 -21 -10 -18 -20 2
-72 12 -122 22 -11 2 -40 6 -65 10 -25 3 -47 8 -50 12 -3 3 -16 6 -30 7 -14 1
-54 6 -90 13 -36 7 -76 14 -90 16 -14 2 -77 13 -140 25 -63 12 -138 23 -166
26 -78 8 -84 -6 -84 -179 0 -190 8 -204 142 -231 37 -8 70 -16 75 -19 4 -3 26
-8 48 -11 22 -4 64 -13 95 -21 30 -8 66 -16 80 -18 14 -3 66 -15 115 -26 50
-12 101 -24 115 -27 14 -3 34 -8 45 -10 11 -3 31 -7 45 -10 14 -3 34 -8 45
-11 11 -3 29 -8 40 -9 11 -2 47 -10 80 -18 33 -8 71 -17 85 -20 14 -2 63 -13
110 -25 169 -41 265 -63 285 -66 11 -2 31 -6 45 -10 14 -4 34 -8 45 -10 11 -2
29 -6 40 -9 11 -2 61 -14 110 -26 50 -12 169 -39 265 -61 96 -22 184 -42 195
-45 11 -3 31 -7 44 -10 13 -3 51 -12 85 -20 34 -8 70 -17 81 -19 11 -3 52 -12
90 -21 39 -8 79 -17 90 -19 11 -1 58 -13 105 -25 47 -12 94 -23 105 -25 11 -1
49 -10 85 -18 36 -9 76 -19 90 -22 14 -2 45 -9 70 -15 25 -6 56 -13 70 -16 14
-3 43 -10 65 -16 22 -5 49 -12 60 -14 11 -1 49 -10 85 -19 36 -8 74 -17 85
-20 57 -11 79 -16 86 -20 4 -3 26 -7 49 -10 24 -3 47 -8 52 -11 4 -3 20 -7 34
-10 14 -3 56 -12 93 -20 36 -9 73 -17 81 -19 8 -2 33 -8 55 -13 22 -6 51 -13
65 -16 31 -5 100 -21 205 -46 44 -10 91 -21 105 -23 14 -3 43 -10 65 -15 22
-6 60 -15 85 -21 25 -6 74 -17 110 -25 36 -8 76 -17 90 -20 14 -2 66 -14 115
-26 50 -12 97 -23 105 -25 8 -2 54 -12 102 -24 48 -11 99 -23 113 -25 14 -3
33 -7 43 -10 9 -3 28 -7 42 -10 14 -2 45 -9 70 -16 25 -7 54 -14 65 -16 43 -8
63 -13 145 -32 47 -11 139 -32 205 -47 135 -30 128 -29 211 -49 34 -8 72 -17
85 -20 13 -2 62 -13 109 -24 72 -17 310 -73 375 -87 11 -2 56 -13 101 -23 140
-33 239 -15 271 49 19 37 18 465 -1 510 -27 65 -143 138 -243 153 -68 10 -147
24 -173 31 -14 3 -36 7 -50 9 -14 2 -41 6 -60 10 -19 3 -47 8 -62 11 -16 3
-40 7 -55 10 -37 7 -97 18 -103 20 -3 0 -26 4 -51 8 -82 14 -104 17 -134 24
-16 3 -39 7 -50 9 -11 2 -31 5 -45 8 -14 2 -43 7 -65 10 -22 4 -47 9 -55 12
-8 3 -31 7 -50 10 -19 2 -46 6 -60 9 -14 3 -38 7 -55 10 -16 3 -52 10 -80 15
-27 5 -66 12 -85 15 -19 3 -42 8 -50 10 -8 2 -31 6 -50 9 -19 3 -48 8 -65 11
-16 3 -43 7 -60 10 -16 3 -41 7 -55 10 -24 5 -99 18 -165 30 -16 2 -41 7 -55
10 -14 3 -38 7 -55 10 -16 2 -55 8 -85 14 -30 7 -68 14 -85 16 -27 5 -123 24
-150 30 -5 1 -17 4 -25 7 -8 3 -35 11 -60 17 -25 7 -54 16 -65 20 -11 5 -47
19 -80 31 -120 46 -221 99 -337 177 -106 72 -119 83 -229 194 -251 252 -362
552 -312 842 72 422 496 750 1036 803 97 10 1920 0 1936 -10 6 -4 11 -3 11 2
0 6 14 7 35 2 21 -5 35 -4 35 2 0 5 5 6 10 3 6 -4 59 -7 118 -6 156 0 253 41
283 118 5 13 9 127 9 252 0 220 -1 229 -22 261 -13 19 -45 45 -72 59 -45 23
-60 26 -165 25 -107 -1 -275 -7 -526 -19 -55 -3 -165 -8 -245 -11 -80 -3 -181
-7 -225 -9 -306 -13 -380 -16 -464 -20 -368 -19 -723 -24 -803 -12 -26 4 -64
9 -85 13 -21 3 -46 7 -55 10 -10 3 -30 7 -44 10 -15 3 -59 16 -98 30 -39 14
-75 27 -81 28 -15 4 -137 64 -160 79 -95 60 -274 216 -275 240 0 4 -9 18 -21
30 -34 37 -98 178 -120 267 -20 84 -28 226 -16 300 15 86 20 108 34 150 8 25
26 69 39 98 13 29 24 55 24 57 0 10 66 113 116 181 56 76 146 171 234 246 65
55 185 138 200 138 5 0 10 3 10 8 0 9 185 103 260 133 107 41 267 89 346 102
16 3 63 13 104 22 41 9 84 18 95 21 11 2 31 6 45 9 14 3 34 7 45 9 11 2 38 9
60 14 22 6 56 13 75 16 19 3 50 10 68 15 18 5 35 10 37 10 3 0 19 3 36 6 17 4
40 8 52 10 12 2 40 8 62 14 22 5 51 12 65 15 37 7 122 25 145 30 74 17 224 49
244 52 12 3 51 11 85 19 33 8 72 16 86 19 31 6 119 24 145 30 11 2 52 11 90
20 39 9 81 17 95 20 14 2 55 11 91 20 65 15 88 20 147 32 193 38 291 92 328
179 19 47 20 478 1 513 -34 60 -141 74 -282 35z m-3518 -1576 c-45 -68 -102
-165 -126 -217 -57 -124 -57 -122 -87 -215 -26 -80 -29 -91 -40 -155 -4 -19
-8 -44 -11 -55 -26 -132 -20 -358 13 -493 8 -31 17 -67 19 -80 22 -96 139
-329 200 -398 6 -6 21 -26 35 -44 14 -19 37 -46 52 -62 22 -23 24 -28 10 -29
-19 -1 -113 -5 -317 -13 -180 -8 -332 -15 -470 -22 -286 -14 -445 -12 -529 6
-258 58 -453 232 -536 480 -27 82 -34 134 -34 240 0 113 9 167 45 275 29 86
93 216 111 223 4 2 8 10 8 18 0 8 4 14 8 14 4 0 15 12 24 28 26 41 105 122
178 180 36 29 70 57 77 62 7 6 14 10 17 10 2 0 30 15 63 33 69 39 189 81 293
103 41 8 84 17 95 20 11 2 34 7 50 9 17 3 58 13 91 21 34 8 72 16 85 18 13 2
42 8 64 14 41 11 81 20 125 27 14 2 111 22 215 45 105 23 201 44 215 46 14 3
31 7 39 10 8 2 30 7 50 10 20 3 38 8 40 10 15 14 0 -10 -72 -119z m-304 -2289
c207 -1 377 -6 377 -10 0 -4 -4 -9 -9 -12 -18 -11 -149 -193 -177 -246 -16
-30 -33 -58 -39 -62 -5 -4 -6 -8 -1 -8 5 0 4 -6 -2 -13 -10 -12 -54 -121 -53
-132 0 -2 -8 -25 -19 -50 -11 -25 -18 -45 -15 -45 2 0 -1 -15 -6 -32 -36 -125
-43 -410 -13 -528 3 -14 8 -36 10 -50 19 -117 116 -356 197 -485 52 -83 108
-165 117 -170 21 -13 9 -25 -20 -20 -16 3 -45 7 -62 10 -18 3 -40 8 -48 10 -8
2 -33 7 -55 10 -22 4 -51 9 -65 11 -14 3 -38 7 -55 9 -16 3 -52 9 -80 15 -27
6 -63 13 -80 16 -16 2 -56 9 -88 15 -32 5 -70 12 -85 15 -41 6 -128 22 -272
50 -41 8 -88 16 -105 18 -90 14 -120 20 -193 41 -82 24 -233 98 -270 133 -7 6
-17 12 -21 12 -27 0 -251 249 -251 279 0 5 -4 11 -8 13 -11 4 -78 145 -80 168
0 3 -6 19 -12 35 -7 17 -14 44 -17 60 -3 17 -8 50 -13 74 -9 50 -6 209 5 261
25 120 89 252 168 345 52 62 163 155 185 155 7 0 12 5 12 10 0 6 4 10 9 10 5
0 38 13 73 29 35 16 77 32 93 35 17 2 30 5 30 6 0 1 11 4 25 6 78 15 155 19
335 17 110 -1 370 -3 578 -5z"/>
</g>
</svg>
